<svg id="Icons" height="512" viewBox="0 0 74 74" width="512" xmlns="http://www.w3.org/2000/svg"><path d="m69 27h-64a3 3 0 0 1 -3-3v-15a3 3 0 0 1 3-3h64a3 3 0 0 1 3 3v15a3 3 0 0 1 -3 3zm-64-19a1 1 0 0 0 -1 1v15a1 1 0 0 0 1 1h64a1 1 0 0 0 1-1v-15a1 1 0 0 0 -1-1z"/><path d="m69 52.5h-64a3 3 0 0 1 -3-3v-15a3 3 0 0 1 3-3h64a3 3 0 0 1 3 3v15a3 3 0 0 1 -3 3zm-64-19a1 1 0 0 0 -1 1v15a1 1 0 0 0 1 1h64a1 1 0 0 0 1-1v-15a1 1 0 0 0 -1-1z"/><path d="m59.25 22a5.5 5.5 0 1 1 5.5-5.5 5.506 5.506 0 0 1 -5.5 5.5zm0-9a3.5 3.5 0 1 0 3.5 3.5 3.5 3.5 0 0 0 -3.5-3.5z"/><path d="m44.75 22a5.5 5.5 0 1 1 5.5-5.5 5.506 5.506 0 0 1 -5.5 5.5zm0-9a3.5 3.5 0 1 0 3.5 3.5 3.5 3.5 0 0 0 -3.5-3.5z"/><path d="m33.75 18h-23.5a1 1 0 0 1 0-2h23.5a1 1 0 0 1 0 2z"/><path d="m59.25 47.5a5.5 5.5 0 1 1 5.5-5.5 5.506 5.506 0 0 1 -5.5 5.5zm0-9a3.5 3.5 0 1 0 3.5 3.5 3.5 3.5 0 0 0 -3.5-3.5z"/><path d="m44.75 47.5a5.5 5.5 0 1 1 5.5-5.5 5.506 5.506 0 0 1 -5.5 5.5zm0-9a3.5 3.5 0 1 0 3.5 3.5 3.5 3.5 0 0 0 -3.5-3.5z"/><path d="m33.75 43.5h-23.5a1 1 0 0 1 0-2h23.5a1 1 0 0 1 0 2z"/><path d="m40.5 33.5h-7a1 1 0 0 1 -1-1v-6.5a1 1 0 0 1 1-1h7a1 1 0 0 1 1 1v6.5a1 1 0 0 1 -1 1zm-6-2h5v-4.5h-5z"/><path d="m37 61a1 1 0 0 1 -1-1v-8.5a1 1 0 0 1 2 0v8.5a1 1 0 0 1 -1 1z"/><path d="m43 68h-12a1 1 0 0 1 -1-1v-7a1 1 0 0 1 1-1h12a1 1 0 0 1 1 1v7a1 1 0 0 1 -1 1zm-11-2h10v-5h-10z"/><path d="m56 64.5h-13a1 1 0 0 1 0-2h13a1 1 0 0 1 0 2z"/><path d="m31 64.5h-13a1 1 0 0 1 0-2h13a1 1 0 0 1 0 2z"/></svg>