<svg id="Capa_1" enable-background="new 0 0 512 512" height="512" viewBox="0 0 512 512" width="512" xmlns="http://www.w3.org/2000/svg"><g><path d="m375.428 24.413c-36.071-16.199-76.253-24.413-119.428-24.413-42.791 0-82.66 8.074-118.501 23.999-35.079 15.587-57.746 51.126-57.746 90.539v26.483c0 4.15 3.364 7.515 7.515 7.515s7.515-3.365 7.515-7.515v-26.483c0-33.479 19.162-63.627 48.819-76.804 33.908-15.066 71.724-22.705 112.398-22.705 41.039 0 79.149 7.77 113.271 23.094 29.126 13.081 47.946 43.073 47.946 76.408v167.901c0 4.15 3.364 7.515 7.515 7.515s7.515-3.364 7.515-7.515v-167.9c0-39.243-22.303-74.617-56.819-90.119z"/><path d="m424.732 304.977c-4.151 0-7.515 3.364-7.515 7.515v63.367c-32.159 17.778-85.322 37.899-161.217 37.899s-129.058-20.121-161.217-37.899v-204.779c0-4.15-3.364-7.515-7.515-7.515s-7.515 3.364-7.515 7.515v226.389c0 39.244 22.302 74.617 56.819 90.118 36.071 16.199 76.253 24.413 119.428 24.413s83.357-8.214 119.428-24.413c34.517-15.501 56.819-50.875 56.819-90.118v-84.977c0-4.151-3.364-7.515-7.515-7.515zm-55.461 168.899c-34.122 15.324-72.232 23.094-113.271 23.094s-79.149-7.77-113.271-23.094c-29.126-13.08-47.946-43.072-47.946-76.408v-4.584c34.256 17.591 87.591 35.903 161.217 35.903s126.961-18.312 161.217-35.903v4.584c0 33.336-18.82 63.328-47.946 76.408z"/><path d="m356.854 55.615c0-4.15-3.364-7.515-7.515-7.515s-7.515 3.364-7.515 7.515c0 1.11-3.9 6.725-21.921 11.961-16.967 4.93-39.662 7.645-63.904 7.645s-46.937-2.715-63.904-7.645c-18.021-5.236-21.921-10.852-21.921-11.961 0-4.15-3.364-7.515-7.515-7.515s-7.515 3.364-7.515 7.515c0 23.797 52.28 34.635 100.854 34.635s100.856-10.839 100.856-34.635z"/><path d="m231.878 452.298h-5.427v-5.427c0-4.15-3.364-7.515-7.515-7.515s-7.515 3.365-7.515 7.515v5.427h-5.427c-4.151 0-7.515 3.365-7.515 7.515s3.364 7.515 7.515 7.515h5.427v5.427c0 4.15 3.364 7.515 7.515 7.515s7.515-3.365 7.515-7.515v-5.427h5.427c4.151 0 7.515-3.365 7.515-7.515s-3.365-7.515-7.515-7.515z"/><path d="m306.012 452.298h-25.882c-4.151 0-7.515 3.365-7.515 7.515s3.364 7.515 7.515 7.515h25.882c4.151 0 7.515-3.365 7.515-7.515s-3.365-7.515-7.515-7.515z"/></g></svg>